<svg width="38" height="21" viewBox="0 0 38 21" fill="none" xmlns="http://www.w3.org/2000/svg">
<mask id="path-1-inside-1_10032_219" fill="white">
<path d="M20.8636 20.8919C20.8636 20.8919 21.5494 20.8185 21.9007 20.4551C22.2222 20.1221 22.211 19.4938 22.211 19.4938C22.211 19.4938 22.1683 16.5597 23.5827 16.1265C24.9766 15.7004 26.7664 18.9639 28.6659 20.2188C30.1007 21.1676 31.1899 20.9599 31.1899 20.9599L36.2656 20.8919C36.2656 20.8919 38.9197 20.7344 37.6614 18.724C37.5574 18.5593 36.9273 17.2364 33.8885 14.5189C30.7048 11.6743 31.1322 12.1344 34.9646 7.21319C37.299 4.21644 38.232 2.38689 37.9402 1.60458C37.6633 0.856287 35.946 1.055 35.946 1.055L30.2327 1.08901C30.2327 1.08901 29.8089 1.03351 29.4948 1.21432C29.1882 1.39155 28.9893 1.80508 28.9893 1.80508C28.9893 1.80508 28.086 4.12335 26.8798 6.09612C24.3354 10.2565 23.3188 10.4767 22.9024 10.2189C21.9341 9.61561 22.1757 7.79858 22.1757 6.50786C22.1757 2.4746 22.8114 0.793631 20.9398 0.358618C20.319 0.213614 19.8618 0.118735 18.2727 0.102624C16.2339 0.0829317 14.5091 0.109784 13.5315 0.569859C12.881 0.875979 12.3792 1.55982 12.6858 1.59921C13.0631 1.64754 13.9181 1.82119 14.3716 2.41553C14.957 3.18351 14.9366 4.90566 14.9366 4.90566C14.9366 4.90566 15.273 9.6532 14.1504 10.2422C13.3809 10.6467 12.3253 9.82148 10.0559 6.046C8.89431 4.11261 8.01706 1.97515 8.01706 1.97515C8.01706 1.97515 7.84793 1.57594 7.54498 1.36112C7.17884 1.10154 6.66773 1.02098 6.66773 1.02098L1.23882 1.055C1.23882 1.055 0.422899 1.07648 0.123667 1.4184C-0.14211 1.72094 0.103223 2.34929 0.103223 2.34929C0.103223 2.34929 4.3538 11.9285 9.16752 16.7566C13.5817 21.1819 18.5924 20.8919 18.5924 20.8919H20.8636Z"/>
</mask>
<path d="M20.8636 20.8919C20.8636 20.8919 21.5494 20.8185 21.9007 20.4551C22.2222 20.1221 22.211 19.4938 22.211 19.4938C22.211 19.4938 22.1683 16.5597 23.5827 16.1265C24.9766 15.7004 26.7664 18.9639 28.6659 20.2188C30.1007 21.1676 31.1899 20.9599 31.1899 20.9599L36.2656 20.8919C36.2656 20.8919 38.9197 20.7344 37.6614 18.724C37.5574 18.5593 36.9273 17.2364 33.8885 14.5189C30.7048 11.6743 31.1322 12.1344 34.9646 7.21319C37.299 4.21644 38.232 2.38689 37.9402 1.60458C37.6633 0.856287 35.946 1.055 35.946 1.055L30.2327 1.08901C30.2327 1.08901 29.8089 1.03351 29.4948 1.21432C29.1882 1.39155 28.9893 1.80508 28.9893 1.80508C28.9893 1.80508 28.086 4.12335 26.8798 6.09612C24.3354 10.2565 23.3188 10.4767 22.9024 10.2189C21.9341 9.61561 22.1757 7.79858 22.1757 6.50786C22.1757 2.4746 22.8114 0.793631 20.9398 0.358618C20.319 0.213614 19.8618 0.118735 18.2727 0.102624C16.2339 0.0829317 14.5091 0.109784 13.5315 0.569859C12.881 0.875979 12.3792 1.55982 12.6858 1.59921C13.0631 1.64754 13.9181 1.82119 14.3716 2.41553C14.957 3.18351 14.9366 4.90566 14.9366 4.90566C14.9366 4.90566 15.273 9.6532 14.1504 10.2422C13.3809 10.6467 12.3253 9.82148 10.0559 6.046C8.89431 4.11261 8.01706 1.97515 8.01706 1.97515C8.01706 1.97515 7.84793 1.57594 7.54498 1.36112C7.17884 1.10154 6.66773 1.02098 6.66773 1.02098L1.23882 1.055C1.23882 1.055 0.422899 1.07648 0.123667 1.4184C-0.14211 1.72094 0.103223 2.34929 0.103223 2.34929C0.103223 2.34929 4.3538 11.9285 9.16752 16.7566C13.5817 21.1819 18.5924 20.8919 18.5924 20.8919H20.8636Z" fill="#F3F4F4"/>
<path d="M20.8636 20.8919V22.3919H20.9436L21.0232 22.3834L20.8636 20.8919ZM21.9007 20.4551L22.9792 21.4976L22.9797 21.4971L21.9007 20.4551ZM22.211 19.4938L20.7112 19.5156L20.7113 19.5204L22.211 19.4938ZM23.5827 16.1265L23.1442 14.692L23.1434 14.6922L23.5827 16.1265ZM28.6659 20.2188L29.4933 18.9676L29.4927 18.9673L28.6659 20.2188ZM31.1899 20.9599L31.1698 19.4601L31.0382 19.4618L30.9089 19.4865L31.1899 20.9599ZM36.2656 20.8919L36.2857 22.3918L36.3202 22.3913L36.3545 22.3893L36.2656 20.8919ZM37.6614 18.724L38.9329 17.9282L38.9295 17.9227L37.6614 18.724ZM33.8885 14.5189L34.8884 13.4008L34.8879 13.4003L33.8885 14.5189ZM34.9646 7.21319L33.7813 6.2914L33.7812 6.29156L34.9646 7.21319ZM37.9402 1.60458L36.5335 2.12519L36.5348 2.12879L37.9402 1.60458ZM35.946 1.055L35.9549 2.55497L36.0369 2.55448L36.1184 2.54505L35.946 1.055ZM30.2327 1.08901L30.0379 2.57631L30.1393 2.58959L30.2416 2.58898L30.2327 1.08901ZM29.4948 1.21432L28.7465 -0.0856824L28.7443 -0.0843982L29.4948 1.21432ZM28.9893 1.80508L27.6375 1.15499L27.6125 1.20687L27.5916 1.26051L28.9893 1.80508ZM26.8798 6.09612L28.1595 6.87874L28.1595 6.8786L26.8798 6.09612ZM22.9024 10.2189L22.1092 11.492L22.1128 11.4942L22.9024 10.2189ZM20.9398 0.358618L20.5986 1.8193L20.6002 1.81967L20.9398 0.358618ZM18.2727 0.102624L18.2879 -1.3973L18.2872 -1.39731L18.2727 0.102624ZM13.5315 0.569859L14.1702 1.92709L14.1702 1.92708L13.5315 0.569859ZM12.6858 1.59921L12.4948 3.08699L12.4952 3.08705L12.6858 1.59921ZM14.3716 2.41553L15.5645 1.50615L15.5641 1.50562L14.3716 2.41553ZM14.9366 4.90566L13.4367 4.88785L13.4359 4.94984L13.4403 5.01168L14.9366 4.90566ZM14.1504 10.2422L13.4535 8.91388L13.4523 8.91451L14.1504 10.2422ZM10.0559 6.046L8.77015 6.81852L8.77029 6.81876L10.0559 6.046ZM8.01706 1.97515L9.40474 1.40562L9.40152 1.39779L9.39822 1.39L8.01706 1.97515ZM7.54498 1.36112L8.41263 0.137521L8.41251 0.137435L7.54498 1.36112ZM6.66773 1.02098L6.90127 -0.460726L6.78055 -0.479754L6.65833 -0.478988L6.66773 1.02098ZM1.23882 1.055L1.22942 -0.444975L1.21437 -0.44488L1.19934 -0.444484L1.23882 1.055ZM0.123667 1.4184L1.25058 2.40838L1.25245 2.40625L0.123667 1.4184ZM0.103223 2.34929L-1.29405 2.89484L-1.28167 2.92656L-1.26786 2.95768L0.103223 2.34929ZM9.16752 16.7566L8.10528 17.8157L8.10552 17.8159L9.16752 16.7566ZM18.5924 20.8919V19.3919H18.549L18.5057 19.3944L18.5924 20.8919ZM20.8636 20.8919C21.0232 22.3834 21.0235 22.3834 21.0239 22.3833C21.024 22.3833 21.0244 22.3833 21.0246 22.3832C21.0251 22.3832 21.0256 22.3831 21.0261 22.3831C21.0271 22.383 21.0281 22.3829 21.0292 22.3827C21.0314 22.3825 21.0338 22.3822 21.0364 22.3819C21.0415 22.3813 21.0473 22.3807 21.0539 22.3799C21.067 22.3782 21.0829 22.3762 21.1014 22.3736C21.1382 22.3685 21.1858 22.3611 21.2419 22.351C21.3524 22.3312 21.5044 22.299 21.6763 22.248C21.9737 22.16 22.533 21.9592 22.9792 21.4976L20.8222 19.4126C20.9171 19.3144 20.9578 19.332 20.8245 19.3715C20.781 19.3844 20.7396 19.3933 20.7105 19.3985C20.6969 19.4009 20.6882 19.4022 20.6861 19.4025C20.6851 19.4026 20.686 19.4025 20.6888 19.4021C20.6903 19.402 20.6922 19.4017 20.6947 19.4014C20.696 19.4013 20.6974 19.4011 20.6989 19.401C20.6997 19.4009 20.7005 19.4008 20.7013 19.4007C20.7017 19.4007 20.7022 19.4006 20.7026 19.4006C20.7028 19.4005 20.7032 19.4005 20.7033 19.4005C20.7036 19.4005 20.704 19.4004 20.8636 20.8919ZM22.9797 21.4971C23.4457 21.0144 23.5945 20.4245 23.6505 20.1271C23.6833 19.953 23.698 19.8004 23.7049 19.6901C23.7084 19.6339 23.71 19.586 23.7107 19.5486C23.711 19.5298 23.7111 19.5135 23.7111 19.4999C23.7111 19.4931 23.7111 19.4869 23.711 19.4815C23.711 19.4787 23.7109 19.4762 23.7109 19.4738C23.7109 19.4726 23.7109 19.4715 23.7109 19.4704C23.7109 19.4698 23.7108 19.4693 23.7108 19.4687C23.7108 19.4685 23.7108 19.4681 23.7108 19.4679C23.7108 19.4676 23.7108 19.4672 22.211 19.4938C20.7113 19.5204 20.7113 19.52 20.7113 19.5196C20.7113 19.5195 20.7113 19.5191 20.7113 19.5189C20.7113 19.5184 20.7112 19.5179 20.7112 19.5174C20.7112 19.5165 20.7112 19.5156 20.7112 19.5147C20.7112 19.5129 20.7112 19.5112 20.7111 19.5097C20.7111 19.5067 20.7111 19.5041 20.7111 19.5019C20.7111 19.4977 20.7111 19.4952 20.7111 19.4943C20.7112 19.4925 20.7111 19.4963 20.7106 19.5043C20.7095 19.5221 20.707 19.5474 20.7023 19.5721C20.6835 19.672 20.6771 19.5628 20.8216 19.4131L22.9797 21.4971ZM22.211 19.4938C23.7109 19.4719 23.7109 19.4723 23.7109 19.4726C23.7109 19.4727 23.7109 19.473 23.7109 19.4732C23.7109 19.4736 23.7109 19.474 23.7109 19.4743C23.7109 19.4749 23.7109 19.4753 23.7109 19.4756C23.7109 19.4761 23.7109 19.476 23.7109 19.4752C23.7109 19.4736 23.7109 19.4695 23.7109 19.463C23.7109 19.4499 23.7111 19.4272 23.7117 19.3963C23.7129 19.3343 23.716 19.2404 23.7234 19.1247C23.7386 18.8884 23.7706 18.5839 23.8342 18.2821C23.9005 17.9677 23.9857 17.732 24.0692 17.588C24.1505 17.4478 24.1532 17.5205 24.022 17.5607L23.1434 14.6922C22.305 14.949 21.7826 15.551 21.4741 16.0828C21.1679 16.6108 20.9986 17.1898 20.8988 17.6631C20.7963 18.149 20.7506 18.6051 20.7296 18.9325C20.7189 19.0985 20.7142 19.2373 20.7123 19.3374C20.7113 19.3876 20.711 19.4284 20.7109 19.4585C20.7109 19.4735 20.7109 19.4859 20.711 19.4955C20.711 19.5003 20.7111 19.5044 20.7111 19.5078C20.7111 19.5094 20.7111 19.5109 20.7112 19.5122C20.7112 19.5129 20.7112 19.5135 20.7112 19.5141C20.7112 19.5144 20.7112 19.5147 20.7112 19.5149C20.7112 19.5153 20.7112 19.5156 22.211 19.4938ZM24.0211 17.561C23.7173 17.6538 23.5962 17.4757 23.8586 17.6529C24.0993 17.8154 24.4138 18.1116 24.8387 18.5664C25.1951 18.9478 25.7414 19.5675 26.1842 20.0288C26.6629 20.5275 27.2229 21.0633 27.8391 21.4703L29.4927 18.9673C29.1592 18.7469 28.7831 18.4041 28.3485 17.9513C27.8779 17.461 27.5335 17.0562 27.0307 16.5182C26.5965 16.0535 26.0835 15.5353 25.5372 15.1665C25.0126 14.8123 24.1451 14.3861 23.1442 14.692L24.0211 17.561ZM27.8385 21.47C28.7504 22.073 29.5915 22.3323 30.2468 22.4291C30.5715 22.477 30.845 22.4843 31.0532 22.4765C31.1572 22.4726 31.2451 22.465 31.3151 22.4568C31.3502 22.4527 31.3808 22.4484 31.4068 22.4444C31.4198 22.4424 31.4316 22.4404 31.4423 22.4386C31.4476 22.4376 31.4527 22.4367 31.4574 22.4359C31.4598 22.4354 31.4621 22.435 31.4643 22.4346C31.4655 22.4344 31.4665 22.4342 31.4676 22.434C31.4682 22.4339 31.469 22.4337 31.4692 22.4337C31.47 22.4335 31.4708 22.4334 31.1899 20.9599C30.9089 19.4865 30.9097 19.4863 30.9105 19.4862C30.9107 19.4861 30.9115 19.486 30.912 19.4859C30.913 19.4857 30.914 19.4855 30.915 19.4853C30.9169 19.485 30.9188 19.4846 30.9207 19.4843C30.9244 19.4836 30.9278 19.483 30.9311 19.4824C30.9375 19.4813 30.9431 19.4804 30.9478 19.4797C30.9571 19.4783 30.9629 19.4775 30.9654 19.4772C30.9702 19.4767 30.9618 19.4778 30.9414 19.4786C30.9005 19.4801 30.812 19.48 30.685 19.4613C30.4371 19.4246 30.0162 19.3134 29.4933 18.9676L27.8385 21.47ZM31.21 22.4598L36.2857 22.3918L36.2455 19.392L31.1698 19.4601L31.21 22.4598ZM36.2656 20.8919C36.3545 22.3893 36.3551 22.3892 36.3557 22.3892C36.3559 22.3892 36.3565 22.3892 36.3569 22.3891C36.3578 22.3891 36.3587 22.389 36.3596 22.389C36.3615 22.3888 36.3635 22.3887 36.3658 22.3886C36.3702 22.3883 36.3753 22.3879 36.3811 22.3875C36.3927 22.3867 36.4069 22.3856 36.4236 22.3841C36.4569 22.3813 36.5004 22.3771 36.5522 22.371C36.655 22.3589 36.795 22.339 36.957 22.3063C37.2612 22.245 37.7307 22.122 38.1823 21.8627C38.6365 21.6019 39.2282 21.1076 39.4322 20.2632C39.6347 19.4252 39.3642 18.6172 38.9329 17.9282L36.3899 19.5198C36.5878 19.836 36.4574 19.8016 36.5161 19.5586C36.5764 19.3091 36.7405 19.2312 36.6885 19.261C36.6338 19.2924 36.5184 19.3344 36.3643 19.3654C36.2972 19.379 36.2397 19.3871 36.2023 19.3915C36.184 19.3936 36.1716 19.3947 36.1667 19.3952C36.1642 19.3954 36.1637 19.3954 36.1653 19.3953C36.1661 19.3952 36.1674 19.3951 36.1693 19.395C36.1703 19.3949 36.1714 19.3949 36.1726 19.3948C36.1732 19.3948 36.1739 19.3947 36.1746 19.3947C36.1749 19.3947 36.1755 19.3946 36.1756 19.3946C36.1762 19.3946 36.1768 19.3945 36.2656 20.8919ZM38.9295 17.9227C38.9363 17.9336 38.9577 17.9692 38.8924 17.8562C38.8508 17.7843 38.7942 17.6892 38.7193 17.5719C38.5695 17.3375 38.3557 17.0295 38.0488 16.6442C37.4367 15.8757 36.4586 14.8049 34.8884 13.4008L32.8886 15.637C34.3573 16.9504 35.2136 17.8998 35.7022 18.5133C36.1849 19.1193 36.2936 19.3673 36.3934 19.5253L38.9295 17.9227ZM34.8879 13.4003C34.0419 12.6444 33.5942 12.2421 33.3449 11.9311C33.1643 11.7058 33.2979 11.7968 33.2606 11.9666C33.2602 11.9683 33.2777 11.893 33.3906 11.7026C33.5022 11.5145 33.6714 11.2723 33.9243 10.941C34.4741 10.2207 35.1216 9.45291 36.1481 8.13482L33.7812 6.29156C32.8914 7.43407 32.0484 8.45424 31.5397 9.12068C31.0322 9.78552 30.5056 10.5255 30.3304 11.323C30.1052 12.3484 30.4894 13.1654 31.0042 13.8076C31.4505 14.3642 32.1433 14.9711 32.8891 15.6375L34.8879 13.4003ZM36.148 8.13498C37.3363 6.60949 38.2157 5.32173 38.7651 4.27622C39.039 3.75487 39.2583 3.24292 39.381 2.75677C39.4978 2.29431 39.5712 1.68499 39.3456 1.08036L36.5348 2.12879C36.4552 1.91533 36.5214 1.82806 36.4723 2.02232C36.4292 2.19288 36.324 2.4723 36.1094 2.88072C35.6817 3.69475 34.9274 4.82014 33.7813 6.2914L36.148 8.13498ZM39.347 1.08397C39.0815 0.366491 38.5109 0.0011265 38.108 -0.173418C37.7031 -0.34879 37.2866 -0.415222 36.9804 -0.444164C36.659 -0.474545 36.3633 -0.471753 36.1557 -0.463042C36.0495 -0.458585 35.9604 -0.452311 35.8953 -0.446864C35.8626 -0.44413 35.8356 -0.441576 35.8151 -0.439513C35.8049 -0.438481 35.7962 -0.437569 35.7892 -0.436815C35.7858 -0.436439 35.7827 -0.436101 35.7801 -0.435807C35.7788 -0.43566 35.7776 -0.435524 35.7765 -0.4354C35.7759 -0.435338 35.7754 -0.435279 35.7749 -0.435222C35.7747 -0.435194 35.7743 -0.435154 35.7742 -0.43514C35.7739 -0.435101 35.7736 -0.435062 35.946 1.055C36.1184 2.54505 36.1181 2.54509 36.1177 2.54513C36.1176 2.54514 36.1173 2.54517 36.1171 2.5452C36.1168 2.54524 36.1164 2.54528 36.1161 2.54532C36.1154 2.5454 36.1148 2.54546 36.1143 2.54552C36.1134 2.54563 36.1128 2.54569 36.1125 2.54571C36.1121 2.54576 36.1131 2.54565 36.1155 2.54541C36.1203 2.54492 36.1305 2.54394 36.1453 2.5427C36.1751 2.54021 36.2224 2.5368 36.2815 2.53432C36.4046 2.52916 36.5555 2.52904 36.6981 2.54252C36.8559 2.55744 36.9206 2.58163 36.9156 2.57946C36.9125 2.57811 36.6605 2.46852 36.5335 2.12519L39.347 1.08397ZM35.937 -0.444977L30.2238 -0.410964L30.2416 2.58898L35.9549 2.55497L35.937 -0.444977ZM30.2327 1.08901C30.4275 -0.398291 30.4271 -0.39834 30.4267 -0.398389C30.4266 -0.398406 30.4262 -0.398456 30.4259 -0.398489C30.4254 -0.398556 30.4249 -0.398623 30.4244 -0.398692C30.4233 -0.398828 30.4222 -0.398968 30.4211 -0.39911C30.4189 -0.399394 30.4165 -0.39969 30.414 -0.399994C30.409 -0.400604 30.4036 -0.401253 30.3976 -0.40193C30.3858 -0.403281 30.372 -0.40475 30.3564 -0.406238C30.3253 -0.409206 30.2865 -0.412309 30.2414 -0.414713C30.1524 -0.419451 30.0317 -0.421861 29.8916 -0.413435C29.6396 -0.398292 29.1907 -0.341389 28.7465 -0.0856805L30.2432 2.51432C30.113 2.58922 30.0331 2.58347 30.0715 2.58116C30.0734 2.58105 30.0759 2.58097 30.0784 2.58098C30.0809 2.58099 30.0822 2.58106 30.0818 2.58104C30.0813 2.58101 30.0781 2.58083 30.0714 2.58019C30.068 2.57987 30.0636 2.57942 30.0581 2.57879C30.0553 2.57848 30.0523 2.57812 30.0489 2.57771C30.0472 2.5775 30.0455 2.57728 30.0436 2.57705C30.0427 2.57693 30.0418 2.57681 30.0408 2.57669C30.0404 2.57663 30.0399 2.57657 30.0394 2.5765C30.0391 2.57647 30.0388 2.57642 30.0387 2.57641C30.0383 2.57636 30.0379 2.57631 30.2327 1.08901ZM28.7443 -0.0843982C28.311 0.165976 28.0337 0.52284 27.899 0.714817C27.8211 0.82597 27.7607 0.92621 27.7187 1.00062C27.6974 1.0384 27.68 1.07106 27.6665 1.09702C27.6598 1.11003 27.654 1.12149 27.6492 1.13118C27.6467 1.13603 27.6446 1.14046 27.6426 1.14443C27.6416 1.14641 27.6407 1.14829 27.6399 1.15005C27.6394 1.15093 27.639 1.15178 27.6386 1.15261C27.6384 1.15302 27.6382 1.15342 27.6381 1.15382C27.638 1.15402 27.6378 1.15431 27.6378 1.15441C27.6376 1.1547 27.6375 1.15499 28.9893 1.80508C30.3411 2.45517 30.341 2.45545 30.3408 2.45574C30.3408 2.45583 30.3406 2.45611 30.3406 2.4563C30.3404 2.45667 30.3402 2.45704 30.34 2.4574C30.3397 2.45812 30.3393 2.45883 30.339 2.45951C30.3383 2.46087 30.3377 2.46215 30.3371 2.46335C30.336 2.46574 30.3349 2.46782 30.334 2.4696C30.3323 2.47315 30.3311 2.47555 30.3303 2.47691C30.329 2.47956 30.3295 2.47853 30.3316 2.47477C30.3365 2.46611 30.345 2.45189 30.3551 2.4375C30.3966 2.37841 30.372 2.43989 30.2454 2.51304L28.7443 -0.0843982ZM28.9893 1.80508C27.5916 1.26051 27.5917 1.26041 27.5917 1.26031C27.5917 1.26029 27.5918 1.26021 27.5918 1.26017C27.5918 1.26009 27.5918 1.26004 27.5918 1.26003C27.5918 1.26001 27.5918 1.26013 27.5917 1.26039C27.5915 1.26091 27.5911 1.26197 27.5904 1.26358C27.5892 1.26679 27.5871 1.27217 27.5841 1.27962C27.5782 1.29454 27.569 1.31776 27.5565 1.34865C27.5317 1.41045 27.4941 1.50282 27.445 1.6206C27.3466 1.85642 27.2025 2.19273 27.022 2.58865C26.6581 3.38696 26.1591 4.39938 25.6001 5.31365L28.1595 6.8786C28.8067 5.8201 29.3625 4.687 29.7518 3.83298C29.9479 3.40273 30.105 3.03617 30.2137 2.77566C30.2681 2.64529 30.3105 2.54112 30.3397 2.46844C30.3543 2.43209 30.3657 2.40358 30.3736 2.38357C30.3776 2.37356 30.3807 2.36568 30.3829 2.36C30.384 2.35716 30.3849 2.35487 30.3856 2.35314C30.3859 2.35228 30.3862 2.35155 30.3864 2.35097C30.3866 2.35068 30.3867 2.35042 30.3867 2.3502C30.3868 2.35009 30.3868 2.34995 30.3869 2.3499C30.3869 2.34977 30.387 2.34965 28.9893 1.80508ZM25.6001 5.31351C24.3472 7.36223 23.5538 8.29547 23.1088 8.68245C22.888 8.87441 22.8491 8.84616 22.9709 8.81508C23.1545 8.76824 23.4343 8.78396 23.6921 8.94358L22.1128 11.4942C22.5787 11.7827 23.1418 11.8676 23.7126 11.722C24.2216 11.5921 24.6739 11.2971 25.0774 10.9462C25.8809 10.2474 26.868 8.99038 28.1595 6.87874L25.6001 5.31351ZM23.6956 8.94577C23.8648 9.05116 23.7257 9.12175 23.6702 8.49004C23.6472 8.22773 23.6455 7.9263 23.6528 7.57862C23.6593 7.26673 23.6757 6.84765 23.6757 6.50786H20.6757C20.6757 6.97251 20.6143 7.98391 20.6817 8.75229C20.7476 9.5026 20.9718 10.7833 22.1093 11.492L23.6956 8.94577ZM23.6757 6.50786C23.6757 5.53642 23.7139 4.70744 23.7445 3.96886C23.774 3.25932 23.8008 2.56393 23.7552 1.96923C23.7099 1.37862 23.5822 0.671679 23.1383 0.0572883C22.6605 -0.604041 21.981 -0.939361 21.2794 -1.10244L20.6002 1.81967C20.8344 1.8741 20.7773 1.91204 20.7066 1.81427C20.6699 1.76345 20.7342 1.8104 20.764 2.19856C20.7934 2.58265 20.7784 3.09092 20.7471 3.84452C20.717 4.56906 20.6757 5.46268 20.6757 6.50786H23.6757ZM21.281 -1.10206C20.5383 -1.27555 19.9702 -1.38024 18.2879 -1.3973L18.2575 1.60255C19.7534 1.61771 20.0998 1.70278 20.5986 1.8193L21.281 -1.10206ZM18.2872 -1.39731C17.2694 -1.40714 16.2697 -1.40655 15.3898 -1.33931C14.5376 -1.27419 13.6371 -1.13767 12.8928 -0.787358L14.1702 1.92708C14.4034 1.81731 14.8542 1.71037 15.6184 1.65197C16.355 1.59568 17.2372 1.59269 18.2582 1.60255L18.2872 -1.39731ZM12.8928 -0.787369C12.345 -0.529581 11.8753 -0.130059 11.5707 0.257237C11.4443 0.417991 11.2059 0.749302 11.1233 1.18591C11.0797 1.41592 11.0427 1.88085 11.334 2.34887C11.6549 2.86447 12.1563 3.04352 12.4948 3.08699L12.8769 0.111428C13.1387 0.145053 13.5887 0.294116 13.8809 0.763589C14.1435 1.18547 14.1004 1.58813 14.0709 1.7437C14.0165 2.03145 13.8867 2.16528 13.9287 2.11188C13.961 2.07088 14.0675 1.97542 14.1702 1.92709L12.8928 -0.787369ZM12.4952 3.08705C12.6124 3.10206 12.7906 3.136 12.9555 3.20027C13.1307 3.26853 13.1808 3.32768 13.179 3.32544L15.5641 1.50562C15.1089 0.909042 14.5047 0.584193 14.0447 0.404968C13.5745 0.221741 13.1366 0.144696 12.8764 0.111368L12.4952 3.08705ZM13.1786 3.32491C13.1717 3.31584 13.2154 3.37635 13.2695 3.55756C13.3195 3.72513 13.3584 3.92763 13.386 4.14091C13.4131 4.35033 13.426 4.54465 13.4319 4.68705C13.4348 4.75735 13.436 4.81271 13.4364 4.8482C13.4366 4.86589 13.4367 4.87848 13.4366 4.88533C13.4366 4.88876 13.4366 4.89073 13.4366 4.89118C13.4366 4.89141 13.4366 4.89125 13.4366 4.8907C13.4366 4.89042 13.4366 4.89005 13.4366 4.88957C13.4366 4.88934 13.4367 4.88908 13.4367 4.88879C13.4367 4.88865 13.4367 4.88841 13.4367 4.88834C13.4367 4.8881 13.4367 4.88785 14.9366 4.90566C16.4365 4.92347 16.4365 4.92321 16.4365 4.92294C16.4365 4.92284 16.4365 4.92257 16.4365 4.92237C16.4365 4.92198 16.4365 4.92156 16.4365 4.92112C16.4365 4.92023 16.4365 4.91923 16.4365 4.91812C16.4365 4.91591 16.4366 4.91327 16.4366 4.91021C16.4366 4.9041 16.4366 4.89631 16.4366 4.88693C16.4367 4.86818 16.4366 4.84302 16.4362 4.81212C16.4354 4.75043 16.4336 4.66525 16.4293 4.56209C16.4208 4.3576 16.4022 4.07338 16.3612 3.75627C16.2909 3.21216 16.1184 2.23276 15.5645 1.50615L13.1786 3.32491ZM14.9366 4.90566C13.4403 5.01168 13.4403 5.01152 13.4403 5.01138C13.4403 5.01135 13.4403 5.01123 13.4403 5.01118C13.4403 5.01109 13.4403 5.01106 13.4403 5.01111C13.4403 5.0112 13.4403 5.01158 13.4403 5.01223C13.4404 5.01353 13.4406 5.01595 13.4408 5.01944C13.4413 5.02642 13.442 5.0377 13.443 5.05301C13.4449 5.08364 13.4477 5.13033 13.451 5.19093C13.4575 5.31227 13.4657 5.4886 13.4723 5.70286C13.4856 6.13433 13.4918 6.706 13.4659 7.28621C13.4394 7.88025 13.3817 8.41916 13.288 8.81078C13.2409 9.00741 13.198 9.10923 13.1798 9.14377C13.1544 9.19191 13.2191 9.03686 13.4535 8.91388L14.8473 11.5705C15.3623 11.3002 15.662 10.868 15.8331 10.5438C16.0114 10.2059 16.1264 9.84023 16.2056 9.50896C16.3646 8.84477 16.4332 8.08635 16.4629 7.41989C16.4933 6.73959 16.4856 6.08757 16.4709 5.61047C16.4635 5.37045 16.4542 5.17127 16.4467 5.03068C16.4429 4.96031 16.4396 4.90443 16.4371 4.86523C16.4359 4.84562 16.4349 4.83017 16.4341 4.81915C16.4338 4.81364 16.4335 4.80924 16.4333 4.80598C16.4331 4.80434 16.433 4.803 16.433 4.80194C16.4329 4.80141 16.4329 4.80095 16.4329 4.80057C16.4329 4.80038 16.4328 4.80014 16.4328 4.80005C16.4328 4.79983 16.4328 4.79964 14.9366 4.90566ZM13.4523 8.91451C13.6226 8.82495 13.8329 8.81708 13.972 8.86263C14.0397 8.8848 13.9586 8.8773 13.7128 8.63761C13.2186 8.15578 12.4708 7.15203 11.3416 5.27324L8.77029 6.81876C9.91034 8.71544 10.8251 10.0121 11.6185 10.7856C12.0164 11.1736 12.4853 11.5325 13.0383 11.7136C13.6626 11.9181 14.2934 11.8617 14.8485 11.5698L13.4523 8.91451ZM11.3417 5.27348C10.7969 4.36668 10.3113 3.39881 9.95858 2.64783C9.78331 2.27469 9.64324 1.96027 9.5476 1.74058C9.49982 1.63083 9.46324 1.54499 9.43902 1.4876C9.42692 1.45891 9.41791 1.43736 9.41215 1.4235C9.40926 1.41657 9.40719 1.41157 9.40595 1.40857C9.40533 1.40706 9.40492 1.40606 9.40472 1.40557C9.40461 1.40532 9.40456 1.4052 9.40457 1.40521C9.40457 1.40521 9.40458 1.40525 9.40461 1.40532C9.40463 1.40535 9.40466 1.40543 9.40466 1.40545C9.4047 1.40553 9.40474 1.40562 8.01706 1.97515C6.62939 2.54467 6.62943 2.54478 6.62948 2.54489C6.6295 2.54494 6.62955 2.54507 6.62959 2.54517C6.62967 2.54537 6.62977 2.5456 6.62988 2.54586C6.63009 2.54639 6.63036 2.54705 6.63069 2.54784C6.63134 2.54941 6.6322 2.55151 6.63328 2.55411C6.63543 2.55931 6.63842 2.56655 6.64225 2.57574C6.6499 2.59414 6.66088 2.62039 6.67503 2.65393C6.70332 2.72098 6.74436 2.81724 6.79697 2.93809C6.90211 3.17959 7.05396 3.52037 7.2432 3.92327C7.61949 4.72438 8.15336 5.79193 8.77015 6.81852L11.3417 5.27348ZM8.01706 1.97515C9.39822 1.39 9.39809 1.38969 9.39796 1.38939C9.39792 1.38928 9.39779 1.38897 9.3977 1.38876C9.39752 1.38834 9.39734 1.38792 9.39715 1.38749C9.39679 1.38662 9.39641 1.38573 9.39601 1.38481C9.39522 1.38296 9.39438 1.38101 9.39349 1.37895C9.39171 1.37483 9.38972 1.37027 9.38753 1.3653C9.38314 1.35535 9.37792 1.3437 9.37185 1.33051C9.35974 1.3042 9.3441 1.27135 9.32493 1.23339C9.28707 1.15841 9.23294 1.05843 9.16214 0.946564C9.03389 0.743896 8.79159 0.406243 8.41263 0.137521L6.67733 2.58471C6.60132 2.53081 6.59507 2.50017 6.62711 2.55081C6.63647 2.5656 6.64355 2.57885 6.64688 2.58544C6.6483 2.58825 6.64824 2.58827 6.64656 2.58463C6.64571 2.58278 6.64441 2.57991 6.64265 2.57592C6.64177 2.57392 6.64076 2.57163 6.63964 2.56904C6.63908 2.56774 6.63849 2.56636 6.63787 2.5649C6.63755 2.56418 6.63723 2.56343 6.63691 2.56266C6.63674 2.56228 6.63658 2.56189 6.63641 2.56149C6.63633 2.56129 6.6362 2.56099 6.63616 2.5609C6.63603 2.5606 6.6359 2.56029 8.01706 1.97515ZM8.41251 0.137435C8.04179 -0.125391 7.64927 -0.267529 7.40404 -0.341835C7.27141 -0.382023 7.15595 -0.409963 7.0706 -0.428434C7.02751 -0.437759 6.99098 -0.444911 6.9625 -0.450165C6.94822 -0.452798 6.93587 -0.454972 6.92563 -0.456718C6.92051 -0.457591 6.9159 -0.458359 6.91184 -0.459025C6.9098 -0.459359 6.90791 -0.459667 6.90614 -0.45995C6.90526 -0.460091 6.90442 -0.460227 6.9036 -0.460356C6.9032 -0.460421 6.9028 -0.460484 6.90241 -0.460546C6.90222 -0.460576 6.90193 -0.460622 6.90183 -0.460637C6.90155 -0.460682 6.90127 -0.460726 6.66773 1.02098C6.4342 2.50269 6.43392 2.50265 6.43364 2.5026C6.43355 2.50259 6.43328 2.50255 6.4331 2.50252C6.43274 2.50246 6.43239 2.50241 6.43205 2.50235C6.43136 2.50224 6.4307 2.50214 6.43006 2.50203C6.4288 2.50183 6.42764 2.50164 6.42658 2.50147C6.42447 2.50112 6.42278 2.50084 6.42149 2.50062C6.41891 2.50018 6.41791 2.49999 6.41832 2.50007C6.41921 2.50023 6.42548 2.5014 6.43603 2.50369C6.45796 2.50843 6.49315 2.51685 6.53407 2.52925C6.63593 2.56012 6.68204 2.58805 6.67745 2.5848L8.41251 0.137435ZM6.65833 -0.478988L1.22942 -0.444975L1.24821 2.55497L6.67713 2.52095L6.65833 -0.478988ZM1.23882 1.055C1.19934 -0.444484 1.19903 -0.444476 1.19873 -0.444468C1.19862 -0.444465 1.19831 -0.444457 1.1981 -0.444451C1.19767 -0.44444 1.19723 -0.444428 1.19678 -0.444415C1.19587 -0.444389 1.19491 -0.444362 1.19389 -0.444332C1.19186 -0.444272 1.18961 -0.444202 1.18715 -0.444121C1.18224 -0.443959 1.17648 -0.443753 1.16991 -0.443492C1.15679 -0.44297 1.14039 -0.442224 1.12106 -0.441164C1.08254 -0.439052 1.03161 -0.435651 0.971258 -0.430182C0.852975 -0.419461 0.686678 -0.399745 0.50025 -0.362587C0.318924 -0.326447 0.0831537 -0.266946 -0.15964 -0.164365C-0.389987 -0.0670425 -0.724038 0.109371 -1.00512 0.430553L1.25245 2.40625C1.18237 2.48633 1.11713 2.53473 1.07835 2.56009C1.03924 2.58566 1.01299 2.59697 1.00793 2.59911C1.00228 2.60149 1.0266 2.59151 1.08666 2.57954C1.14161 2.56859 1.198 2.56156 1.24205 2.55757C1.26287 2.55569 1.27801 2.55474 1.28529 2.55434C1.28885 2.55414 1.29027 2.55409 1.28925 2.55413C1.28873 2.55415 1.28759 2.5542 1.28578 2.55426C1.28487 2.55429 1.2838 2.55432 1.28256 2.55436C1.28193 2.55438 1.28127 2.5544 1.28056 2.55441C1.2802 2.55443 1.27984 2.55444 1.27946 2.55445C1.27927 2.55445 1.27898 2.55446 1.27889 2.55446C1.27859 2.55447 1.2783 2.55448 1.23882 1.055ZM-1.00325 0.42842C-1.60568 1.11418 -1.5078 1.95534 -1.47086 2.21143C-1.44362 2.40026 -1.40203 2.56151 -1.3692 2.67236C-1.35226 2.72955 -1.3363 2.77786 -1.32336 2.81502C-1.31685 2.8337 -1.31102 2.84983 -1.30608 2.86316C-1.30361 2.86984 -1.30135 2.87583 -1.29934 2.88112C-1.29833 2.88376 -1.29739 2.88623 -1.29651 2.88851C-1.29607 2.88966 -1.29564 2.89076 -1.29523 2.89181C-1.29503 2.89234 -1.29483 2.89286 -1.29463 2.89336C-1.29453 2.89361 -1.29439 2.89398 -1.29434 2.89411C-1.29419 2.89448 -1.29405 2.89484 0.103223 2.34929C1.5005 1.80374 1.50064 1.8041 1.50078 1.80446C1.50082 1.80457 1.50096 1.80493 1.50105 1.80516C1.50123 1.80563 1.50141 1.80609 1.50159 1.80654C1.50194 1.80744 1.50227 1.80831 1.5026 1.80916C1.50325 1.81084 1.50384 1.8124 1.50439 1.81384C1.50549 1.81673 1.5064 1.81916 1.50714 1.82116C1.50862 1.82514 1.50944 1.82748 1.50976 1.82839C1.51032 1.83 1.5092 1.82686 1.50729 1.82041C1.50242 1.80399 1.49929 1.78924 1.49842 1.78317C1.49654 1.77016 1.50575 1.81553 1.49351 1.90192C1.48114 1.98926 1.4344 2.19913 1.25058 2.40838L-1.00325 0.42842ZM0.103223 2.34929C-1.26786 2.95768 -1.26777 2.95787 -1.26767 2.9581C-1.26762 2.95823 -1.2675 2.95849 -1.26739 2.95874C-1.26716 2.95924 -1.26688 2.95989 -1.26652 2.96068C-1.26582 2.96226 -1.26486 2.96443 -1.26364 2.96716C-1.2612 2.97264 -1.25773 2.9804 -1.25324 2.9904C-1.24428 3.01041 -1.23125 3.03938 -1.21428 3.07686C-1.18033 3.15181 -1.13058 3.26087 -1.06594 3.40051C-0.936669 3.67973 -0.747685 4.08155 -0.5062 4.57781C-0.0236055 5.56957 0.670619 6.94255 1.51874 8.47042C3.19688 11.4936 5.54489 15.2476 8.10528 17.8157L10.2298 15.6975C7.97644 13.4375 5.79229 9.98789 4.14172 7.01441C3.32547 5.54396 2.6562 4.22038 2.19138 3.26516C1.95916 2.78793 1.77846 2.40365 1.65647 2.14015C1.59549 2.00843 1.54921 1.90696 1.51854 1.83924C1.50321 1.80538 1.49178 1.77997 1.48437 1.76343C1.48066 1.75516 1.47796 1.74912 1.47628 1.74534C1.47544 1.74346 1.47485 1.74214 1.47452 1.7414C1.47436 1.74102 1.47426 1.7408 1.47422 1.74072C1.4742 1.74067 1.47422 1.74072 1.47421 1.7407C1.47425 1.74078 1.4743 1.7409 0.103223 2.34929ZM8.10552 17.8159C10.533 20.2495 13.139 21.3977 15.1492 21.9332C16.1522 22.2004 17.0081 22.3156 17.624 22.3635C17.9324 22.3876 18.1819 22.3948 18.3611 22.3957C18.4508 22.3961 18.523 22.395 18.5765 22.3935C18.6032 22.3928 18.6252 22.392 18.6424 22.3912C18.6509 22.3909 18.6583 22.3905 18.6644 22.3902C18.6675 22.39 18.6702 22.3899 18.6727 22.3898C18.6739 22.3897 18.675 22.3896 18.6761 22.3896C18.6766 22.3895 18.6774 22.3895 18.6776 22.3895C18.6784 22.3894 18.6791 22.3894 18.5924 20.8919C18.5057 19.3944 18.5064 19.3944 18.507 19.3943C18.5072 19.3943 18.5078 19.3943 18.5082 19.3943C18.509 19.3942 18.5097 19.3942 18.5103 19.3942C18.5115 19.3941 18.5124 19.394 18.5131 19.394C18.5143 19.3939 18.5144 19.3939 18.5134 19.394C18.5113 19.3941 18.5047 19.3944 18.4936 19.3947C18.4715 19.3953 18.4318 19.396 18.3758 19.3957C18.2638 19.3952 18.0873 19.3905 17.857 19.3726C17.3955 19.3367 16.7228 19.2478 15.9214 19.0343C14.3227 18.6084 12.2162 17.689 10.2295 15.6973L8.10552 17.8159ZM18.5924 22.3919H20.8636V19.3919H18.5924V22.3919Z" fill="black" mask="url(#path-1-inside-1_10032_219)"/>
</svg>
