<svg width="115" height="50" viewBox="0 0 115 50" fill="none" xmlns="http://www.w3.org/2000/svg">
<path d="M16.2941 1C16.3421 1 16.3661 1.048 16.3661 1.144C16.3661 1.24 16.3421 1.288 16.2941 1.288C15.6221 1.288 15.1341 1.472 14.8301 1.84C14.5261 2.208 14.3741 2.808 14.3741 3.64V16.288C14.3741 16.32 14.3341 16.344 14.2541 16.36C14.1741 16.376 14.1181 16.368 14.0861 16.336L3.04612 2.968L2.83012 2.728V13.384C2.83012 14.216 2.97412 14.816 3.26213 15.184C3.56612 15.536 4.04612 15.712 4.70213 15.712C4.75012 15.712 4.77412 15.76 4.77412 15.856C4.77412 15.952 4.75012 16 4.70213 16C4.30212 16 3.99812 15.992 3.79013 15.976L2.59012 15.952L1.36612 15.976C1.14212 15.992 0.814125 16 0.382125 16C0.350125 16 0.334125 15.952 0.334125 15.856C0.334125 15.76 0.350125 15.712 0.382125 15.712C1.07012 15.712 1.55812 15.536 1.84612 15.184C2.13412 14.816 2.27812 14.216 2.27812 13.384V2.152C1.65412 1.576 1.02212 1.288 0.382125 1.288C0.334125 1.288 0.310125 1.24 0.310125 1.144C0.310125 1.048 0.334125 1 0.382125 1L1.27012 1.024C1.46212 1.04 1.72612 1.048 2.06212 1.048C2.41412 1.048 2.70212 1.04 2.92612 1.024C3.15012 1.008 3.32613 1 3.45413 1C3.58212 1 3.67012 1.032 3.71812 1.096C3.78212 1.144 3.87812 1.264 4.00612 1.456C4.19812 1.744 4.39012 2.008 4.58212 2.248L13.8221 13.6V3.64C13.8221 2.808 13.6781 2.208 13.3901 1.84C13.1181 1.472 12.6541 1.288 11.9981 1.288C11.9661 1.288 11.9501 1.24 11.9501 1.144C11.9501 1.048 11.9661 1 11.9981 1L12.9341 1.024C13.4141 1.056 13.8061 1.072 14.1101 1.072C14.3981 1.072 14.7981 1.056 15.3101 1.024L16.2941 1ZM31.9796 15.712C32.0436 15.712 32.0756 15.76 32.0756 15.856C32.0756 15.952 32.0436 16 31.9796 16C31.7396 16 31.3636 15.984 30.8516 15.952C30.2756 15.92 29.8196 15.904 29.4836 15.904C29.1316 15.904 28.6996 15.92 28.1876 15.952C27.6756 15.984 27.3076 16 27.0836 16C27.0356 16 27.0116 15.952 27.0116 15.856C27.0116 15.76 27.0356 15.712 27.0836 15.712C27.6436 15.712 28.0356 15.64 28.2596 15.496C28.4836 15.352 28.5956 15.088 28.5956 14.704C28.5956 14.48 28.5716 14.24 28.5236 13.984L27.5636 8.344H23.9636L21.4916 12.856C21.0276 13.688 20.7956 14.328 20.7956 14.776C20.7956 15.128 20.9316 15.376 21.2036 15.52C21.4756 15.648 21.8916 15.712 22.4516 15.712C22.5156 15.712 22.5396 15.76 22.5236 15.856C22.5236 15.952 22.4916 16 22.4276 16C22.2356 16 21.8516 15.984 21.2756 15.952C20.6356 15.92 20.1396 15.904 19.7876 15.904C19.4516 15.904 19.0596 15.92 18.6116 15.952C18.1636 15.984 17.8196 16 17.5796 16C17.5156 16 17.4836 15.952 17.4836 15.856C17.4836 15.76 17.5156 15.712 17.5796 15.712C18.0436 15.712 18.5476 15.496 19.0916 15.064C19.6516 14.616 20.2036 13.912 20.7476 12.952L27.5636 0.759999C27.5956 0.711999 27.6516 0.688 27.7316 0.688C27.8756 0.688 27.9636 0.728 27.9956 0.808L30.2756 13.984C30.3556 14.48 30.4356 14.84 30.5156 15.064C30.6116 15.288 30.7636 15.456 30.9716 15.568C31.1956 15.664 31.5316 15.712 31.9796 15.712ZM24.2756 7.792H27.4676L26.6996 3.352L24.2756 7.792ZM38.9291 1.432C37.9211 1.432 37.1611 1.688 36.6491 2.2C36.1531 2.712 35.7931 3.584 35.5691 4.816C35.5691 4.848 35.5211 4.864 35.4251 4.864C35.3451 4.864 35.3051 4.848 35.3051 4.816C35.3691 4.24 35.4411 3.488 35.5211 2.56C35.6011 1.632 35.6411 0.935999 35.6411 0.472C35.6411 0.392 35.6811 0.352 35.7611 0.352C35.8571 0.352 35.9051 0.392 35.9051 0.472C35.9051 0.824 36.3371 1 37.2011 1C38.5611 1.048 40.1691 1.072 42.0251 1.072C42.9691 1.072 43.9691 1.056 45.0251 1.024L46.6571 1C47.2331 1 47.6571 0.96 47.9291 0.879999C48.2171 0.799999 48.4011 0.639999 48.4811 0.399999C48.4971 0.335999 48.5451 0.303999 48.6251 0.303999C48.7051 0.303999 48.7451 0.335999 48.7451 0.399999C48.6971 0.863999 48.6491 1.568 48.6011 2.512C48.5531 3.456 48.5291 4.224 48.5291 4.816C48.5291 4.848 48.4811 4.864 48.3851 4.864C48.2891 4.864 48.2411 4.848 48.2411 4.816C48.1931 3.568 47.9371 2.696 47.4731 2.2C47.0091 1.688 46.2411 1.432 45.1691 1.432C44.4491 1.432 43.9371 1.464 43.6331 1.528C43.3291 1.592 43.1211 1.728 43.0091 1.936C42.8971 2.144 42.8411 2.496 42.8411 2.992V14.056C42.8411 14.552 42.8971 14.912 43.0091 15.136C43.1211 15.36 43.3371 15.512 43.6571 15.592C43.9771 15.672 44.4811 15.712 45.1691 15.712C45.2171 15.712 45.2411 15.76 45.2411 15.856C45.2411 15.952 45.2171 16 45.1691 16C44.6411 16 44.2171 15.992 43.8971 15.976L42.0251 15.952L40.2251 15.976C39.9051 15.992 39.4651 16 38.9051 16C38.8731 16 38.8571 15.952 38.8571 15.856C38.8571 15.76 38.8731 15.712 38.9051 15.712C39.5931 15.712 40.0971 15.672 40.4171 15.592C40.7371 15.512 40.9531 15.36 41.0651 15.136C41.1931 14.896 41.2571 14.536 41.2571 14.056V2.944C41.2571 2.448 41.2011 2.104 41.0891 1.912C40.9771 1.704 40.7691 1.576 40.4651 1.528C40.1611 1.464 39.6491 1.432 38.9291 1.432ZM68.5881 15.712C68.6361 15.712 68.6601 15.76 68.6601 15.856C68.6601 15.952 68.6361 16 68.5881 16L66.6921 15.976L65.4441 16C65.2521 16 65.1241 15.976 65.0601 15.928C65.0121 15.88 64.9881 15.752 64.9881 15.544V13.696C63.9801 14.608 63.0121 15.272 62.0841 15.688C61.1721 16.088 60.1801 16.288 59.1081 16.288C58.1001 16.288 57.1881 16.096 56.3721 15.712C55.5721 15.328 54.9401 14.776 54.4761 14.056C54.0281 13.336 53.8041 12.496 53.8041 11.536V2.944C53.8041 2.464 53.7561 2.112 53.6601 1.888C53.5641 1.664 53.3721 1.512 53.0841 1.432C52.8121 1.336 52.3721 1.288 51.7641 1.288C51.7161 1.288 51.6921 1.24 51.6921 1.144C51.6921 1.048 51.7161 1 51.7641 1L52.9401 1.024C53.6121 1.056 54.1481 1.072 54.5481 1.072C54.9961 1.072 55.5721 1.056 56.2761 1.024L57.4041 1C57.4361 1 57.4521 1.048 57.4521 1.144C57.4521 1.24 57.4361 1.288 57.4041 1.288C56.8121 1.288 56.3721 1.336 56.0841 1.432C55.7961 1.528 55.5961 1.696 55.4841 1.936C55.3881 2.16 55.3401 2.512 55.3401 2.992V10.696C55.3401 12.296 55.7321 13.52 56.5161 14.368C57.3161 15.2 58.3961 15.616 59.7561 15.616C60.6681 15.616 61.5321 15.44 62.3481 15.088C63.1641 14.72 64.0441 14.112 64.9881 13.264V2.992C64.9881 2.512 64.9401 2.16 64.8441 1.936C64.7481 1.696 64.5561 1.528 64.2681 1.432C63.9961 1.336 63.5561 1.288 62.9481 1.288C62.9001 1.288 62.8761 1.24 62.8761 1.144C62.8761 1.048 62.9001 1 62.9481 1L64.1001 1.024C64.8041 1.056 65.3641 1.072 65.7801 1.072C66.1961 1.072 66.7401 1.056 67.4121 1.024L68.5881 1C68.6361 1 68.6601 1.048 68.6601 1.144C68.6601 1.24 68.6361 1.288 68.5881 1.288C67.9801 1.288 67.5321 1.336 67.2441 1.432C66.9721 1.512 66.7801 1.664 66.6681 1.888C66.5721 2.112 66.5241 2.464 66.5241 2.944V14.056C66.5241 14.536 66.5721 14.896 66.6681 15.136C66.7801 15.36 66.9721 15.512 67.2441 15.592C67.5321 15.672 67.9801 15.712 68.5881 15.712ZM83.2927 15.712C83.3407 15.712 83.3647 15.76 83.3647 15.856C83.3647 15.952 83.3407 16 83.2927 16H80.2687C80.1567 16 79.9807 15.672 79.7407 15.016C79.5007 14.36 79.2367 13.44 78.9487 12.256C78.6607 11.072 78.3967 9.736 78.1567 8.248C77.7247 8.328 77.3487 8.368 77.0287 8.368C76.7887 8.368 76.4927 8.352 76.1407 8.32L75.1327 14.056C75.0687 14.36 75.0367 14.64 75.0367 14.896C75.0367 15.216 75.1327 15.432 75.3247 15.544C75.5167 15.656 75.8767 15.712 76.4047 15.712C76.4687 15.712 76.5007 15.76 76.5007 15.856C76.5007 15.952 76.4687 16 76.4047 16C75.9727 16 75.6367 15.992 75.3967 15.976L73.9327 15.952L72.4687 15.976C72.2127 15.992 71.8607 16 71.4127 16C71.3487 16 71.3167 15.952 71.3167 15.856C71.3167 15.76 71.3487 15.712 71.4127 15.712C71.9087 15.712 72.2767 15.672 72.5167 15.592C72.7727 15.512 72.9647 15.36 73.0927 15.136C73.2207 14.896 73.3327 14.536 73.4287 14.056L75.3727 2.944C75.4367 2.496 75.4687 2.224 75.4687 2.128C75.4687 1.792 75.3647 1.568 75.1567 1.456C74.9647 1.344 74.6047 1.288 74.0767 1.288C74.0127 1.288 73.9807 1.24 73.9807 1.144C73.9807 1.048 74.0127 1 74.0767 1L75.1087 1.024C75.7167 1.056 76.1967 1.072 76.5487 1.072C76.8047 1.072 77.0447 1.064 77.2687 1.048C77.4927 1.032 77.6847 1.016 77.8447 1C78.3247 0.952 78.7487 0.927999 79.1167 0.927999C80.2367 0.927999 81.0847 1.136 81.6607 1.552C82.2367 1.952 82.5247 2.528 82.5247 3.28C82.5247 4.144 82.2527 4.976 81.7087 5.776C81.1647 6.576 80.4687 7.208 79.6207 7.672C80.1167 9.944 80.5407 11.64 80.8927 12.76C81.2447 13.88 81.5967 14.656 81.9487 15.088C82.3167 15.504 82.7647 15.712 83.2927 15.712ZM76.2607 7.672C76.5807 7.736 76.9887 7.768 77.4847 7.768C78.4127 7.768 79.1087 7.536 79.5727 7.072C80.0527 6.592 80.3807 5.816 80.5567 4.744C80.6207 4.376 80.6527 4.008 80.6527 3.64C80.6527 2.824 80.4767 2.232 80.1247 1.864C79.7727 1.496 79.2847 1.312 78.6607 1.312C78.2927 1.312 78.0207 1.344 77.8447 1.408C77.6687 1.472 77.5167 1.624 77.3887 1.864C77.2767 2.088 77.1807 2.464 77.1007 2.992L76.2607 7.672ZM99.3915 15.712C99.4555 15.712 99.4875 15.76 99.4875 15.856C99.4875 15.952 99.4555 16 99.3915 16C99.1515 16 98.7755 15.984 98.2635 15.952C97.6875 15.92 97.2315 15.904 96.8955 15.904C96.5435 15.904 96.1115 15.92 95.5995 15.952C95.0875 15.984 94.7195 16 94.4955 16C94.4475 16 94.4235 15.952 94.4235 15.856C94.4235 15.76 94.4475 15.712 94.4955 15.712C95.0555 15.712 95.4475 15.64 95.6715 15.496C95.8955 15.352 96.0075 15.088 96.0075 14.704C96.0075 14.48 95.9835 14.24 95.9355 13.984L94.9755 8.344H91.3755L88.9035 12.856C88.4395 13.688 88.2075 14.328 88.2075 14.776C88.2075 15.128 88.3435 15.376 88.6155 15.52C88.8875 15.648 89.3035 15.712 89.8635 15.712C89.9275 15.712 89.9515 15.76 89.9355 15.856C89.9355 15.952 89.9035 16 89.8395 16C89.6475 16 89.2635 15.984 88.6875 15.952C88.0475 15.92 87.5515 15.904 87.1995 15.904C86.8635 15.904 86.4715 15.92 86.0235 15.952C85.5755 15.984 85.2315 16 84.9915 16C84.9275 16 84.8955 15.952 84.8955 15.856C84.8955 15.76 84.9275 15.712 84.9915 15.712C85.4555 15.712 85.9595 15.496 86.5035 15.064C87.0635 14.616 87.6155 13.912 88.1595 12.952L94.9755 0.759999C95.0075 0.711999 95.0635 0.688 95.1435 0.688C95.2875 0.688 95.3755 0.728 95.4075 0.808L97.6875 13.984C97.7675 14.48 97.8475 14.84 97.9275 15.064C98.0235 15.288 98.1755 15.456 98.3835 15.568C98.6075 15.664 98.9435 15.712 99.3915 15.712ZM91.6875 7.792H94.8795L94.1115 3.352L91.6875 7.792ZM106.245 13.96C106.245 14.424 106.293 14.76 106.389 14.968C106.485 15.176 106.661 15.32 106.917 15.4C107.173 15.464 107.589 15.496 108.165 15.496H110.781C111.693 15.496 112.421 15.216 112.965 14.656C113.509 14.096 113.869 13.32 114.045 12.328C114.045 12.28 114.085 12.264 114.165 12.28C114.261 12.28 114.309 12.304 114.309 12.352C114.165 13.68 114.093 14.776 114.093 15.64C114.093 15.768 114.069 15.864 114.021 15.928C113.973 15.976 113.877 16 113.733 16H102.645C102.613 16 102.597 15.952 102.597 15.856C102.597 15.76 102.613 15.712 102.645 15.712C103.253 15.712 103.693 15.672 103.965 15.592C104.253 15.512 104.445 15.36 104.541 15.136C104.637 14.896 104.685 14.536 104.685 14.056V2.944C104.685 2.464 104.637 2.112 104.541 1.888C104.445 1.664 104.253 1.512 103.965 1.432C103.693 1.336 103.253 1.288 102.645 1.288C102.613 1.288 102.597 1.24 102.597 1.144C102.597 1.048 102.613 1 102.645 1L103.821 1.024C104.493 1.056 105.037 1.072 105.453 1.072C105.901 1.072 106.461 1.056 107.133 1.024L108.285 1C108.333 1 108.357 1.048 108.357 1.144C108.357 1.24 108.333 1.288 108.285 1.288C107.693 1.288 107.253 1.336 106.965 1.432C106.693 1.512 106.501 1.672 106.389 1.912C106.293 2.136 106.245 2.488 106.245 2.968V13.96ZM10.6008 36.808C10.6008 37.432 10.7528 37.976 11.0568 38.44C11.3608 38.904 11.7288 39.296 12.1608 39.616C12.5928 39.92 13.2008 40.312 13.9848 40.792C14.8168 41.288 15.4648 41.704 15.9288 42.04C16.3928 42.376 16.7848 42.808 17.1048 43.336C17.4408 43.848 17.6088 44.464 17.6088 45.184C17.6088 45.952 17.4168 46.648 17.0328 47.272C16.6488 47.896 16.0808 48.392 15.3288 48.76C14.5928 49.112 13.7048 49.288 12.6648 49.288C11.4328 49.288 10.3048 49.008 9.28078 48.448C9.20078 48.4 9.14478 48.344 9.11278 48.28C9.09678 48.216 9.08078 48.12 9.06478 47.992L8.75278 44.728C8.73678 44.664 8.76878 44.624 8.84878 44.608C8.94478 44.592 9.00078 44.616 9.01678 44.68C9.27278 45.832 9.74478 46.824 10.4328 47.656C11.1368 48.488 12.0648 48.904 13.2168 48.904C14.0168 48.904 14.6888 48.688 15.2328 48.256C15.7928 47.808 16.0728 47.104 16.0728 46.144C16.0728 45.424 15.9128 44.8 15.5928 44.272C15.2728 43.744 14.8808 43.312 14.4168 42.976C13.9688 42.624 13.3528 42.216 12.5688 41.752C11.8008 41.288 11.1928 40.888 10.7448 40.552C10.3128 40.216 9.94478 39.792 9.64078 39.28C9.33678 38.768 9.18478 38.168 9.18478 37.48C9.18478 36.68 9.39278 36 9.80878 35.44C10.2408 34.864 10.7928 34.44 11.4648 34.168C12.1528 33.88 12.8808 33.736 13.6488 33.736C14.5928 33.736 15.5288 33.928 16.4568 34.312C16.6968 34.392 16.8168 34.528 16.8168 34.72L16.9848 37.48C16.9848 37.544 16.9448 37.576 16.8648 37.576C16.7848 37.576 16.7368 37.544 16.7208 37.48C16.5928 36.648 16.2488 35.88 15.6888 35.176C15.1288 34.456 14.3208 34.096 13.2648 34.096C12.3688 34.096 11.6968 34.36 11.2488 34.888C10.8168 35.4 10.6008 36.04 10.6008 36.808ZM25.0058 34.432C23.9978 34.432 23.2378 34.688 22.7258 35.2C22.2298 35.712 21.8698 36.584 21.6458 37.816C21.6458 37.848 21.5978 37.864 21.5018 37.864C21.4218 37.864 21.3818 37.848 21.3818 37.816C21.4458 37.24 21.5178 36.488 21.5978 35.56C21.6778 34.632 21.7178 33.936 21.7178 33.472C21.7178 33.392 21.7578 33.352 21.8378 33.352C21.9338 33.352 21.9818 33.392 21.9818 33.472C21.9818 33.824 22.4138 34 23.2778 34C24.6378 34.048 26.2458 34.072 28.1018 34.072C29.0458 34.072 30.0458 34.056 31.1018 34.024L32.7338 34C33.3098 34 33.7338 33.96 34.0058 33.88C34.2938 33.8 34.4778 33.64 34.5578 33.4C34.5738 33.336 34.6218 33.304 34.7018 33.304C34.7818 33.304 34.8218 33.336 34.8218 33.4C34.7738 33.864 34.7258 34.568 34.6778 35.512C34.6298 36.456 34.6058 37.224 34.6058 37.816C34.6058 37.848 34.5578 37.864 34.4618 37.864C34.3658 37.864 34.3178 37.848 34.3178 37.816C34.2698 36.568 34.0138 35.696 33.5498 35.2C33.0858 34.688 32.3178 34.432 31.2458 34.432C30.5258 34.432 30.0138 34.464 29.7098 34.528C29.4058 34.592 29.1978 34.728 29.0858 34.936C28.9738 35.144 28.9178 35.496 28.9178 35.992V47.056C28.9178 47.552 28.9738 47.912 29.0858 48.136C29.1978 48.36 29.4138 48.512 29.7338 48.592C30.0538 48.672 30.5578 48.712 31.2458 48.712C31.2938 48.712 31.3178 48.76 31.3178 48.856C31.3178 48.952 31.2938 49 31.2458 49C30.7178 49 30.2938 48.992 29.9738 48.976L28.1018 48.952L26.3018 48.976C25.9818 48.992 25.5418 49 24.9818 49C24.9498 49 24.9338 48.952 24.9338 48.856C24.9338 48.76 24.9498 48.712 24.9818 48.712C25.6698 48.712 26.1738 48.672 26.4938 48.592C26.8138 48.512 27.0298 48.36 27.1418 48.136C27.2698 47.896 27.3338 47.536 27.3338 47.056V35.944C27.3338 35.448 27.2778 35.104 27.1658 34.912C27.0538 34.704 26.8458 34.576 26.5418 34.528C26.2378 34.464 25.7258 34.432 25.0058 34.432ZM44.0328 49.288C42.9128 49.288 41.9448 49.032 41.1288 48.52C40.3288 47.992 39.7208 47.272 39.3048 46.36C38.8888 45.448 38.6808 44.408 38.6808 43.24C38.6808 42.664 38.7288 42.08 38.8248 41.488C39.0808 40 39.6088 38.672 40.4088 37.504C41.2248 36.32 42.2088 35.4 43.3608 34.744C44.5288 34.072 45.7688 33.736 47.0808 33.736C48.2168 33.736 49.1928 34 50.0088 34.528C50.8408 35.04 51.4728 35.752 51.9048 36.664C52.3368 37.56 52.5528 38.584 52.5528 39.736C52.5528 40.344 52.4968 40.928 52.3848 41.488C52.1128 43.008 51.5528 44.368 50.7048 45.568C49.8728 46.752 48.8648 47.672 47.6808 48.328C46.5128 48.968 45.2968 49.288 44.0328 49.288ZM45.0648 48.664C46.3768 48.664 47.5048 48.144 48.4488 47.104C49.4088 46.064 50.0648 44.616 50.4168 42.76C50.5768 41.976 50.6568 41.192 50.6568 40.408C50.6568 39.24 50.4728 38.2 50.1048 37.288C49.7528 36.36 49.2328 35.632 48.5448 35.104C47.8568 34.576 47.0488 34.312 46.1208 34.312C44.7928 34.312 43.6488 34.84 42.6888 35.896C41.7448 36.952 41.1048 38.392 40.7688 40.216C40.6248 40.984 40.5528 41.728 40.5528 42.448C40.5528 43.616 40.7288 44.672 41.0808 45.616C41.4328 46.56 41.9448 47.304 42.6168 47.848C43.3048 48.392 44.1208 48.664 45.0648 48.664ZM70.849 48.712C70.881 48.712 70.897 48.76 70.897 48.856C70.897 48.952 70.881 49 70.849 49H67.753C67.353 49 66.601 48.32 65.497 46.96C64.409 45.584 63.081 43.672 61.513 41.224C61.129 41.336 60.697 41.392 60.217 41.392C59.913 41.392 59.553 41.376 59.137 41.344V47.056C59.137 47.552 59.185 47.912 59.281 48.136C59.377 48.36 59.561 48.512 59.833 48.592C60.121 48.672 60.569 48.712 61.177 48.712C61.225 48.712 61.249 48.76 61.249 48.856C61.249 48.952 61.225 49 61.177 49C60.681 49 60.289 48.992 60.001 48.976L58.345 48.952L56.713 48.976C56.425 48.992 56.017 49 55.489 49C55.457 49 55.441 48.952 55.441 48.856C55.441 48.76 55.457 48.712 55.489 48.712C56.097 48.712 56.545 48.672 56.833 48.592C57.121 48.496 57.321 48.336 57.433 48.112C57.545 47.888 57.601 47.536 57.601 47.056V35.944C57.601 35.464 57.545 35.112 57.433 34.888C57.337 34.664 57.145 34.512 56.857 34.432C56.585 34.336 56.145 34.288 55.537 34.288C55.489 34.288 55.465 34.24 55.465 34.144C55.465 34.048 55.489 34 55.537 34L56.713 34.024C57.385 34.056 57.929 34.072 58.345 34.072C58.633 34.072 58.905 34.064 59.161 34.048C59.417 34.032 59.641 34.016 59.833 34C60.345 33.952 60.809 33.928 61.225 33.928C62.521 33.928 63.521 34.192 64.225 34.72C64.929 35.248 65.281 35.984 65.281 36.928C65.281 37.696 65.057 38.424 64.609 39.112C64.161 39.784 63.569 40.32 62.833 40.72C64.193 42.752 65.337 44.344 66.265 45.496C67.193 46.632 68.017 47.456 68.737 47.968C69.457 48.464 70.161 48.712 70.849 48.712ZM59.137 40.744C59.537 40.808 60.009 40.84 60.553 40.84C61.657 40.84 62.449 40.608 62.929 40.144C63.409 39.664 63.649 38.872 63.649 37.768C63.649 35.448 62.673 34.288 60.721 34.288C60.289 34.288 59.961 34.328 59.737 34.408C59.529 34.472 59.377 34.624 59.281 34.864C59.185 35.088 59.137 35.464 59.137 35.992V40.744ZM76.9415 47.056C76.9415 47.536 76.9895 47.896 77.0855 48.136C77.1815 48.36 77.3655 48.512 77.6375 48.592C77.9255 48.672 78.3735 48.712 78.9815 48.712C79.0295 48.712 79.0535 48.76 79.0535 48.856C79.0535 48.952 79.0295 49 78.9815 49C78.5015 49 78.1175 48.992 77.8295 48.976L76.1255 48.952L74.4695 48.976C74.1815 48.992 73.7895 49 73.2935 49C73.2455 49 73.2215 48.952 73.2215 48.856C73.2215 48.76 73.2455 48.712 73.2935 48.712C73.9015 48.712 74.3415 48.672 74.6135 48.592C74.9015 48.512 75.0935 48.36 75.1895 48.136C75.3015 47.896 75.3575 47.536 75.3575 47.056V35.944C75.3575 35.464 75.3015 35.112 75.1895 34.888C75.0935 34.664 74.9015 34.512 74.6135 34.432C74.3415 34.336 73.9015 34.288 73.2935 34.288C73.2455 34.288 73.2215 34.24 73.2215 34.144C73.2215 34.048 73.2455 34 73.2935 34L74.4695 34.024C75.1415 34.056 75.6935 34.072 76.1255 34.072C76.6055 34.072 77.1815 34.056 77.8535 34.024L78.9815 34C79.0295 34 79.0535 34.048 79.0535 34.144C79.0535 34.24 79.0295 34.288 78.9815 34.288C78.3895 34.288 77.9495 34.336 77.6615 34.432C77.3895 34.528 77.1975 34.696 77.0855 34.936C76.9895 35.16 76.9415 35.512 76.9415 35.992V47.056ZM93.9342 34C94.0622 34 94.1102 34.072 94.0782 34.216L93.8862 35.512L93.5982 37.264C93.5982 37.312 93.5582 37.336 93.4782 37.336C93.4462 37.336 93.4062 37.328 93.3582 37.312C93.3262 37.28 93.3102 37.256 93.3102 37.24C93.3742 36.392 93.2062 35.712 92.8062 35.2C92.4062 34.672 91.8382 34.408 91.1022 34.408H89.6142C89.1182 34.408 88.7502 34.448 88.5102 34.528C88.2862 34.608 88.1182 34.752 88.0062 34.96C87.8942 35.168 87.7982 35.504 87.7182 35.968L86.8542 40.912H90.0222C90.6782 40.912 91.1742 40.784 91.5102 40.528C91.8462 40.272 92.0702 39.824 92.1822 39.184C92.1822 39.136 92.2302 39.112 92.3262 39.112C92.3582 39.112 92.3902 39.128 92.4222 39.16C92.4702 39.176 92.4862 39.2 92.4702 39.232C92.4222 39.584 92.3502 39.952 92.2542 40.336C92.1902 40.576 92.1342 40.864 92.0862 41.2L91.9662 41.944C91.9182 42.44 91.8382 42.96 91.7262 43.504C91.7102 43.568 91.6542 43.6 91.5582 43.6C91.4622 43.584 91.4222 43.544 91.4382 43.48C91.4862 43.24 91.5102 43.024 91.5102 42.832C91.5102 42.352 91.3742 42.008 91.1022 41.8C90.8302 41.576 90.4142 41.464 89.8542 41.464H86.7582L85.7742 46.96C85.7262 47.248 85.7022 47.488 85.7022 47.68C85.7022 48.016 85.7982 48.248 85.9902 48.376C86.1982 48.488 86.5742 48.544 87.1182 48.544H89.1102C89.8142 48.544 90.5022 48.256 91.1742 47.68C91.8462 47.088 92.3902 46.312 92.8062 45.352C92.8382 45.304 92.8942 45.288 92.9742 45.304C93.0702 45.32 93.1022 45.352 93.0702 45.4C92.7822 46.328 92.5262 47.408 92.3022 48.64C92.2702 48.784 92.2302 48.88 92.1822 48.928C92.1342 48.976 92.0462 49 91.9182 49H82.1022C82.0702 49 82.0542 48.952 82.0542 48.856C82.0542 48.76 82.0702 48.712 82.1022 48.712C82.5982 48.712 82.9662 48.672 83.2062 48.592C83.4462 48.512 83.6222 48.36 83.7342 48.136C83.8622 47.912 83.9742 47.552 84.0702 47.056L86.0142 35.944C86.0782 35.672 86.1102 35.408 86.1102 35.152C86.1102 34.816 86.0062 34.592 85.7982 34.48C85.5902 34.352 85.2142 34.288 84.6702 34.288C84.6222 34.288 84.5982 34.24 84.5982 34.144C84.5982 34.048 84.6222 34 84.6702 34H93.9342ZM100.187 49.288C99.611 49.288 99.059 49.224 98.531 49.096C98.003 48.984 97.451 48.776 96.875 48.472C96.747 48.392 96.699 48.24 96.731 48.016L97.211 44.776C97.211 44.696 97.251 44.656 97.331 44.656C97.427 44.656 97.483 44.696 97.499 44.776C97.611 46.008 97.939 46.992 98.483 47.728C99.027 48.464 99.795 48.832 100.787 48.832C101.539 48.832 102.195 48.608 102.755 48.16C103.315 47.712 103.667 47.04 103.811 46.144C103.859 45.904 103.883 45.68 103.883 45.472C103.883 44.704 103.651 44.056 103.187 43.528C102.739 42.984 102.091 42.408 101.243 41.8C100.651 41.368 100.179 41 99.827 40.696C99.491 40.392 99.203 40.032 98.963 39.616C98.723 39.2 98.603 38.72 98.603 38.176C98.603 37.936 98.627 37.696 98.675 37.456C98.899 36.272 99.491 35.36 100.451 34.72C101.427 34.064 102.507 33.736 103.691 33.736C104.571 33.736 105.459 33.928 106.355 34.312C106.563 34.424 106.659 34.56 106.643 34.72L106.307 37.528C106.307 37.592 106.259 37.624 106.163 37.624C106.083 37.624 106.043 37.592 106.043 37.528C105.915 36.52 105.627 35.704 105.179 35.08C104.731 34.456 104.075 34.144 103.211 34.144C102.571 34.144 102.043 34.312 101.627 34.648C101.211 34.968 100.899 35.368 100.691 35.848C100.499 36.328 100.403 36.8 100.403 37.264C100.403 37.76 100.515 38.2 100.739 38.584C100.979 38.968 101.259 39.304 101.579 39.592C101.899 39.864 102.363 40.216 102.971 40.648C103.899 41.304 104.603 41.912 105.083 42.472C105.563 43.032 105.803 43.72 105.803 44.536C105.803 44.824 105.787 45.048 105.755 45.208C105.547 46.392 104.955 47.368 103.979 48.136C103.003 48.904 101.739 49.288 100.187 49.288Z" fill="black"/>
</svg>
